/* XPM */
static char *result[] = {
/* columns rows colors chars-per-pixel */
"32 32 127 2 ",
"   c #13192E",
".  c #131E2E",
"X  c #1B1630",
"o  c #1D1831",
"O  c #211C31",
"+  c #221C31",
"@  c #211F30",
"#  c #221F30",
"$  c #212D2B",
"%  c #232D2C",
"&  c #2C2F2E",
"*  c #2D3F27",
"=  c #29302D",
"-  c #2D3D29",
";  c #222030",
":  c #222130",
">  c #2E2032",
",  c #2F2032",
"<  c #2C2E32",
"1  c #2D2E32",
"2  c #382133",
"3  c #392133",
"4  c #323432",
"5  c #333633",
"6  c #431D35",
"7  c #4D2236",
"8  c #4D2336",
"9  c #502437",
"0  c #572C37",
"q  c #5B2438",
"w  c #6D273B",
"e  c #7D2C3B",
"r  c #7A293C",
"t  c #782C3C",
"y  c #1F501E",
"u  c #277714",
"i  c #277814",
"p  c #297A13",
"a  c #287E11",
"s  c #287F11",
"d  c #377718",
"f  c #274624",
"g  c #2C4027",
"h  c #224B21",
"j  c #244E21",
"k  c #3C4F28",
"l  c #4B5636",
"z  c #4D5C32",
"x  c #71592D",
"c  c #516926",
"v  c #447627",
"b  c #687C3B",
"n  c #6A7F3A",
"m  c #80283D",
"M  c #89293F",
"N  c #8A293F",
"B  c #8C293F",
"V  c #8C2B3F",
"C  c #8A2C3F",
"Z  c #95323F",
"A  c #95333F",
"S  c #99383F",
"D  c #9A383F",
"F  c #932A40",
"G  c #983340",
"H  c #983740",
"J  c #993940",
"K  c #9A3B40",
"L  c #A32C42",
"P  c #B42E45",
"I  c #B82E45",
"U  c #BC3D46",
"Y  c #C62F47",
"T  c #C93747",
"R  c #CA3646",
"E  c #CB3847",
"W  c #D03049",
"Q  c #D13149",
"!  c #D23049",
"~  c #D13648",
"^  c #D53849",
"/  c #D53A49",
"(  c #D63B49",
")  c #DA3A49",
"_  c #DB3A4A",
"`  c #DB3B4A",
"'  c #DF3B4A",
"]  c #DC3C4A",
"[  c #DE4349",
"{  c #E1474A",
"}  c #E2474A",
"|  c #E8464B",
" . c #E2484A",
".. c #E44849",
"X. c #E44949",
"o. c #E44A4A",
"O. c #E54B4A",
"+. c #E44B4B",
"@. c #E44D4C",
"#. c #E54E4C",
"$. c #E9494B",
"%. c #EC4D4B",
"&. c #EB4F4D",
"*. c #E5524F",
"=. c #E5534F",
"-. c #E6524F",
";. c #EB5554",
":. c #E75953",
">. c #E85D55",
",. c #E85E56",
"<. c #E86057",
"1. c #E96259",
"2. c #F06058",
"3. c #F0655B",
"4. c #EC7363",
"5. c #ED7463",
"6. c #EE7A68",
"7. c #308611",
"8. c #518A1B",
"9. c #5E8E1D",
"0. c #5B9922",
"q. c #6E863A",
"w. c #87AC35",
"e. c #EF826D",
"r. c #F0826D",
"t. c #F28F74",
"y. c None",
/* pixels */
"y.y.y.y.y.y.y.y.y.y.y.y.y.y.y.y.y.y.y.y.y.y.y.y.y.y.y.y.y.y.y.y.",
"y.y.y.y.y.y.y.y.y.y.y.y.y.y.y.y.y.y.y.y.y.y.y.y.y.y.y.y.y.y.y.y.",
"y.y.y.y.y.y.y.y.y.y.y.y.y.y.y.y.y.y.y.y.y.y.y.y.y.y.y.y.y.y.y.y.",
"y.y.y.y.y.y.y.y.y.y.y.y.y.y.y.y.y.y.y.y.y.y.y.y.y.y.y.y.y.y.y.y.",
"y.y.y.y.y.y.y.y.y.y.y.y.y.y.y.y.y.y.y.y.y.y.y.y.y.y.y.y.y.y.y.y.",
"y.y.y.y.y.y.y.y.y.y.y.y.y.y.y.y.y.y.y.y.y.y.y.y.y.y.y.y.y.y.y.y.",
"y.y.y.y.y.y.y.y.y.y.y.y.y.y.y.y.y.y.y.y.y.y.y.y.y.y.y.y.y.y.y.y.",
"y.y.y.y.y.y.y.y.y.y.y.y.@ 1 5 y.y.y.y.y.y.y.y.y.y.y.y.y.y.y.y.y.",
"y.y.y.y.y.y.y.y.y.y.y.y.; n q.: y.y.y.y.y.y.y.y.y.y.y.y.y.y.y.y.",
"y.y.y.y.y.y.y.y.y.y.X o O v 0.c & y.y.y.y.y.y.y.y.y.y.y.y.y.y.y.",
"y.y.y.y.y.y.y.y.y.l z k f y d 8.= y.y.y.y.y.y.y.y.y.y.y.y.y.y.y.",
"y.y.y.y.y.y.y.y.; b w.9.7.h j i $ y.y.y.y.y.y.y.y.y.y.y.y.y.y.y.",
"y.y.y.y.y.y.y.y.@ < 4 - p a s u % + # # # y.y.y.y.y.y.y.y.y.y.y.",
"y.y.y.y.y.y.y.y.y.  6 r * x x g e G K H V 7 y.y.y.y.y.y.y.y.y.y.",
"y.y.y.y.y.y.y.y.y.0 A R t U U t E | %.$.] C 8 y.y.y.y.y.y.y.y.y.",
"y.y.y.y.y.y.y.y.# J &.=.=.@.@.*.+.o.o.o.o.) M # y.y.y.y.y.y.y.y.",
"y.y.y.y.y.y.y.y.# S 2.e.r.>.,.6.-.X.o.o.o._ N # y.y.y.y.y.y.y.y.",
"y.y.y.y.y.y.y.y.# D 3.t.t.1.-.<.#.o.[ ( } ` N # y.y.y.y.y.y.y.y.",
"y.y.y.y.y.y.y.y.# Z ;.5.4.:.....o.O.[ (  .' B # y.y.y.y.y.y.y.y.",
"y.y.y.y.y.y.y.y.# m T { o.o.o.o.o.o.o.o.{ T m # y.y.y.y.y.y.y.y.",
"y.y.y.y.y.y.y.y.y.> w ~ } o.o.o.o.o.o.} ~ w , y.y.y.y.y.y.y.y.y.",
"y.y.y.y.y.y.y.y.y.. q Q ^ / / / / / / ^ Q q . y.y.y.y.y.y.y.y.y.",
"y.y.y.y.y.y.y.y.y.y.9 F Y ! W W W W ! Y F 9 y.y.y.y.y.y.y.y.y.y.",
"y.y.y.y.y.y.y.y.y.y.y.3 L I P P P P I L 3 y.y.y.y.y.y.y.y.y.y.y.",
"y.y.y.y.y.y.y.y.y.y.y.y.2 2 2 2 2 2 2 2 y.y.y.y.y.y.y.y.y.y.y.y.",
"y.y.y.y.y.y.y.y.y.y.y.y.y.y.y.y.y.y.y.y.y.y.y.y.y.y.y.y.y.y.y.y.",
"y.y.y.y.y.y.y.y.y.y.y.y.y.y.y.y.y.y.y.y.y.y.y.y.y.y.y.y.y.y.y.y.",
"y.y.y.y.y.y.y.y.y.y.y.y.y.y.y.y.y.y.y.y.y.y.y.y.y.y.y.y.y.y.y.y.",
"y.y.y.y.y.y.y.y.y.y.y.y.y.y.y.y.y.y.y.y.y.y.y.y.y.y.y.y.y.y.y.y.",
"y.y.y.y.y.y.y.y.y.y.y.y.y.y.y.y.y.y.y.y.y.y.y.y.y.y.y.y.y.y.y.y.",
"y.y.y.y.y.y.y.y.y.y.y.y.y.y.y.y.y.y.y.y.y.y.y.y.y.y.y.y.y.y.y.y.",
"y.y.y.y.y.y.y.y.y.y.y.y.y.y.y.y.y.y.y.y.y.y.y.y.y.y.y.y.y.y.y.y."
};
