/* XPM */
static char *ezgif_com_gif_maker1665478342[] = {
/* columns rows colors chars-per-pixel */
"32 32 140 2 ",
"   c None",
".  c #161E2E",
"X  c #191D2F",
"o  c #181E2F",
"O  c #1C1F2F",
"+  c #1B1331",
"@  c #1D1831",
"#  c #211E30",
"$  c #201F30",
"%  c #211F30",
"&  c #251F31",
"*  c #2F1E33",
"=  c #232F2B",
"-  c #213C26",
";  c #233F26",
":  c #23302B",
">  c #2C3A29",
",  c #2C3C28",
"<  c #343B2C",
"1  c #232130",
"2  c #242430",
"3  c #272631",
"4  c #282031",
"5  c #292031",
"6  c #2A2332",
"7  c #2C2032",
"8  c #2D2032",
"9  c #2E2032",
"0  c #2F2232",
"q  c #392233",
"w  c #2F3033",
"e  c #402234",
"r  c #432235",
"t  c #442235",
"y  c #452235",
"u  c #482336",
"i  c #582538",
"p  c #66243A",
"a  c #6C263B",
"s  c #6F263B",
"d  c #75273C",
"f  c #7A283D",
"g  c #7E283D",
"h  c #7F323C",
"j  c #215E1A",
"k  c #275F1B",
"l  c #277A13",
"z  c #267C12",
"x  c #277D12",
"c  c #214C20",
"v  c #304029",
"b  c #31432D",
"n  c #3E4534",
"m  c #415B2E",
"M  c #505B37",
"N  c #547225",
"B  c #687B3B",
"V  c #82283E",
"C  c #892D3D",
"Z  c #8E2E3E",
"A  c #942D3F",
"S  c #8F2940",
"D  c #912940",
"F  c #932B40",
"G  c #9A2B41",
"H  c #9B2B41",
"J  c #A42C42",
"K  c #A62C43",
"L  c #AA2D43",
"P  c #AF2D44",
"I  c #AF2F44",
"U  c #B32F44",
"Y  c #B72D45",
"T  c #B42E45",
"R  c #A33741",
"E  c #A43942",
"W  c #A13F44",
"Q  c #CF2F48",
"!  c #C73147",
"~  c #C03A46",
"^  c #C13D46",
"/  c #C43D44",
"(  c #CB3947",
")  c #CF3F47",
"_  c #CA3248",
"`  c #CC3248",
"'  c #D13E47",
"]  c #D03049",
"[  c #D33049",
"{  c #D73749",
"}  c #D8344A",
"|  c #D63A49",
" . c #D63B49",
".. c #D33E48",
"X. c #D93849",
"o. c #D83949",
"O. c #D83D49",
"+. c #DD3C4A",
"@. c #E03D4A",
"#. c #A74F4D",
"$. c #A76158",
"%. c #A9675C",
"&. c #D94249",
"*. c #E14049",
"=. c #E0424A",
"-. c #E04449",
";. c #E0454A",
":. c #E1464A",
">. c #E2474A",
",. c #E3474A",
"<. c #E7474B",
"1. c #E2484A",
"2. c #E3484A",
"3. c #E3494A",
"4. c #E44A49",
"5. c #E4494A",
"6. c #E44A4A",
"7. c #E44B4A",
"8. c #E54B4A",
"9. c #E44B4B",
"0. c #E54C4A",
"q. c #E54F4D",
"w. c #E8494B",
"e. c #E5514E",
"r. c #EC504E",
"t. c #EC5350",
"y. c #E85450",
"u. c #E75853",
"i. c #EB6158",
"p. c #F1685C",
"a. c #F66D5F",
"s. c #EC7464",
"d. c #ED7564",
"f. c #EE7B68",
"g. c #509118",
"h. c #5F972B",
"j. c #7E983D",
"k. c #5BA123",
"l. c #F78971",
"z. c #FA9478",
/* pixels */
"                                                                ",
"                                                                ",
"                                                                ",
"                                                                ",
"                                                                ",
"                            1 2                                 ",
"                            n j.w                               ",
"                          + b k.N <                             ",
"                        M m c k g.b                             ",
"                      # B h.j ; l ; #                           ",
"                      # 2 6 , l z > 0 0 9                       ",
"                        o p Z : = C Y / H 9                     ",
"                      1 h / ) E R ) <.w...F e                   ",
"                      1 #.a.i.r.p.y.4.0.>._ y                   ",
"                      @ %.z.f.e.d.u.>.&.>.! y                   ",
"                      1 $.l.s.9.0.0.O.o.>.! y                   ",
"                      # #.t.q.9.4.9.>.4.,.! e                   ",
"                      # A @.4.4.4.4.4.9.,.! y                   ",
"                      & C } 4.9.9.4.9.4.,.! y                   ",
"                      @ A @.9.4.4.9.4.9.,._ y                   ",
"                      # V ( 1.4.9.4.9.4.&.U e                   ",
"                        1 d o.4.<.9.4.=.U q                     ",
"                        . s } 4.4.4.9.=.P 6                     ",
"                        o s } o.| | | o.T *                     ",
"                          i H ` ] ` [ T f 8                     ",
"                            y K K K P V @                       ",
"                              9 6 & 6 1                         ",
"                                                                ",
"                                                                ",
"                                                                ",
"                                                                ",
"                                                                "
};
