/* XPM */
static char *result[] = {
/* columns rows colors chars-per-pixel */
"32 32 172 2 ",
"   c #1D1F2E",
".  c #151732",
"X  c #1D1632",
"o  c #1A1B31",
"O  c #1C1A30",
"+  c #1C1B30",
"@  c #1D1B30",
"#  c #1D1A31",
"$  c #1D1B31",
"%  c #1D1D30",
"&  c #1C1C31",
"*  c #1D1D31",
"=  c #1F1E30",
"-  c #1F1E31",
";  c #201932",
":  c #211F30",
">  c #1E3326",
",  c #31272D",
"<  c #223429",
"1  c #2C302D",
"2  c #2E3B2A",
"3  c #222030",
"4  c #222130",
"5  c #232130",
"6  c #292630",
"7  c #282831",
"8  c #2F2B30",
"9  c #3B3630",
"0  c #3D3730",
"q  c #6A3D1F",
"w  c #42342B",
"e  c #533825",
"r  c #423C30",
"t  c #2B611B",
"y  c #2D7215",
"u  c #2B7815",
"i  c #4C4531",
"p  c #624229",
"a  c #725124",
"s  c #725425",
"d  c #665F32",
"f  c #516827",
"g  c #516E25",
"h  c #5C6B3A",
"j  c #79682E",
"k  c #7B702F",
"l  c #796D31",
"z  c #786D32",
"x  c #7C7333",
"c  c #7C7433",
"v  c #7F7633",
"b  c #9C5517",
"n  c #BA580A",
"m  c #BB5A0B",
"M  c #BE5D0B",
"N  c #BC5C0C",
"B  c #93661F",
"V  c #BE610E",
"C  c #BF640F",
"Z  c #BF6416",
"A  c #BC6519",
"S  c #BC7514",
"D  c #877930",
"F  c #807439",
"G  c #C4660E",
"H  c #C1680E",
"J  c #C5750F",
"K  c #C5770E",
"L  c #C6770F",
"P  c #CA790F",
"I  c #C16718",
"U  c #C26818",
"Y  c #C77812",
"T  c #C77912",
"R  c #C97811",
"E  c #CB7F13",
"W  c #877F55",
"Q  c #5A961A",
"!  c #5B9C18",
"~  c #6B8235",
"^  c #6B8435",
"/  c #93842F",
"(  c #95862F",
")  c #98882F",
"_  c #928332",
"`  c #B0922C",
"'  c #BAA72D",
"]  c #CC8F18",
"[  c #CB881E",
"{  c #CC8A24",
"}  c #D29424",
"|  c #D7A423",
" . c #DCB52B",
".. c #DCB72C",
"X. c #C9B533",
"o. c #CBB633",
"O. c #C9B534",
"+. c #CBB734",
"@. c #E3BA2B",
"#. c #8CC12D",
"$. c #E3CB34",
"%. c #EAD33B",
"&. c #869F40",
"*. c #8AA750",
"=. c #D9A345",
"-. c #CFB946",
";. c #E4CF40",
":. c #EBD74E",
">. c #EED948",
",. c #EFDA48",
"<. c #E6CA54",
"1. c #E5D058",
"2. c #EBD95A",
"3. c #EEDD5C",
"4. c #F4E151",
"5. c #E5CD66",
"6. c #EACC6B",
"7. c #E9CD6F",
"8. c #EBCE6F",
"9. c #EBCE70",
"0. c #EBCE71",
"q. c #F3E263",
"w. c #F4E365",
"e. c #F4E367",
"r. c #F7E669",
"t. c #F4E46A",
"y. c #F2E476",
"u. c #F0DB92",
"i. c #F6EA84",
"p. c #F6EB87",
"a. c #F7EB89",
"s. c #F7EB8A",
"d. c #F7EC88",
"f. c #F7EC89",
"g. c #F7EC8A",
"h. c #F8ED8C",
"j. c #F9F18C",
"k. c #F9F18E",
"l. c #F7ED92",
"z. c #F8ED92",
"x. c #F8EE94",
"c. c #F9EF95",
"v. c #F5EE9F",
"b. c #F8EF9B",
"n. c #F8EF9C",
"m. c #F8EF9D",
"M. c #F9F290",
"N. c #FAF09B",
"B. c #FAF39B",
"V. c #FCF198",
"C. c #F9F09C",
"Z. c #F9F19E",
"A. c #F9F0A1",
"S. c #FAF2AC",
"D. c #FBF3B0",
"F. c #FAF2B1",
"G. c #FDFAC8",
"H. c #FEFCCF",
"J. c #FCF8D2",
"K. c #FCF8D3",
"L. c #F9F5D8",
"P. c #FAF6D9",
"I. c #FCF9D9",
"U. c #FDF9DB",
"Y. c #FDFADE",
"T. c #FDFBE4",
"R. c #FFFEE5",
"E. c #FDFBE8",
"W. c #FEFBE9",
"Q. c #FFFEFD",
"!. c white",
"~. c None",
/* pixels */
"~.~.~.~.~.~.~.~.~.~.~.~.~.~.~.~.~.~.~.~.~.~.~.~.~.~.~.~.~.~.~.~.",
"~.~.~.~.~.~.~.~.~.~.~.~.~.~.~.~.~.~.~.~.~.~.~.~.~.~.~.~.~.~.~.~.",
"~.~.~.~.~.~.~.~.~.~.~.~.~.~.~.~.~.~.~.~.~.~.~.~.~.~.~.~.~.~.~.~.",
"~.~.~.~.~.~.~.~.~.~.~.~.~.~.~.~.~.~.~.~.~.~.~.~.~.~.~.~.~.~.~.~.",
"~.~.~.~.~.~.~.~.~.~.~.~.~.~.~.~.~.~.~.~.~.~.~.~.~.~.~.~.~.~.~.~.",
"~.~.~.~.~.~.~.~.~.~.~.~.~.~.~.~.~.~.~.~.~.~.~.~.~.~.~.~.~.~.~.~.",
"~.~.~.~.~.~.~.~.~.~.~.~.~.~.~.~.~.~.~.~.~.~.~.~.~.~.~.~.~.~.~.~.",
"~.~.~.~.~.~.~.~.5 4 3 : ~.~.~.~.~.~.~.~.~.~.~.~.~.~.~.~.~.~.~.~.",
"~.~.~.~.~.~.~.5 h ^ f 1 # ~.~.~.~.~.~.~.~.~.~.~.~.~.~.~.~.~.~.~.",
"~.~.~.~.~.~.~.4 ~ #.Q 2 X ~.~.~.~.~.~.~.~.~.~.~.~.~.~.~.~.~.~.~.",
"~.~.~.~.~.~.~.3 g ! u < ; ~.~.~.~.~.~.~.~.~.~.~.~.~.~.~.~.~.~.~.",
"~.~.~.~.~.~.~.% t y >   $ * & + O O O O @ : ~.~.~.~.~.~.~.~.~.~.",
"~.~.~.~.~.~.0 z &.*.W F s q a j c x x v d 6 ~.~.~.~.~.~.~.~.~.~.",
"~.~.~.~.~.~.r +.r.V.N.3.} M E | .. . .@.` 8 ~.~.~.~.~.~.~.~.~.~.",
"~.~.~.~.~.~.r O.w.D.T.Z.=.n N V C C C G b , - : ~.~.~.~.~.~.~.~.",
"~.~.~.~.~.~.r O.e.C.F.c.<.] m H T Y Y R S B w o ~.~.~.~.~.~.~.~.",
"~.~.~.~.~.~.r O.t.h.g.S.v.5.[ K L L L L P J e . ~.~.~.~.~.~.~.~.",
"~.~.~.~.~.~.r X.q.i.l.I.!.L.1.{ Z I I I U A p 7 : ~.~.~.~.~.~.~.",
"~.~.~.~.~.~.r o.%.2.s.n.K.Q.P.u.6.8.9.0.0.7.-.k 5 ~.~.~.~.~.~.~.",
"~.~.~.~.~.~.9 l ' :.f.d.A.J.!.R.H.G.B.j.M.k.4.) 5 ~.~.~.~.~.~.~.",
"~.~.~.~.~.~.~.= / ,.y.p.d.b.U.E.W.Y.m.f.p.y.>.( 5 ~.~.~.~.~.~.~.",
"~.~.~.~.~.~.~.5 _ $.;.y.f.a.z.x.x.z.s.f.y.;.$._ 5 ~.~.~.~.~.~.~.",
"~.~.~.~.~.~.~.~.i D $.,.:.2.i.h.h.i.2.:.,.$.D i ~.~.~.~.~.~.~.~.",
"~.~.~.~.~.~.~.~.~.i _ / ' %.q.t.t.q.%.' / _ i ~.~.~.~.~.~.~.~.~.",
"~.~.~.~.~.~.~.~.~.~.5 = l o.X.O.O.X.o.l = 5 ~.~.~.~.~.~.~.~.~.~.",
"~.~.~.~.~.~.~.~.~.~.~.~.9 r r r r r r 9 ~.~.~.~.~.~.~.~.~.~.~.~.",
"~.~.~.~.~.~.~.~.~.~.~.~.~.~.~.~.~.~.~.~.~.~.~.~.~.~.~.~.~.~.~.~.",
"~.~.~.~.~.~.~.~.~.~.~.~.~.~.~.~.~.~.~.~.~.~.~.~.~.~.~.~.~.~.~.~.",
"~.~.~.~.~.~.~.~.~.~.~.~.~.~.~.~.~.~.~.~.~.~.~.~.~.~.~.~.~.~.~.~.",
"~.~.~.~.~.~.~.~.~.~.~.~.~.~.~.~.~.~.~.~.~.~.~.~.~.~.~.~.~.~.~.~.",
"~.~.~.~.~.~.~.~.~.~.~.~.~.~.~.~.~.~.~.~.~.~.~.~.~.~.~.~.~.~.~.~.",
"~.~.~.~.~.~.~.~.~.~.~.~.~.~.~.~.~.~.~.~.~.~.~.~.~.~.~.~.~.~.~.~."
};
