/* XPM */
static char *ezgif_com_gif_maker_21665478885[] = {
/* columns rows colors chars-per-pixel */
"32 32 188 2 ",
"   c None",
".  c black",
"X  c #010100",
"o  c #030201",
"O  c #040201",
"+  c #060302",
"@  c #0B0603",
"#  c #0A0704",
"$  c #0B0704",
"%  c #0D0905",
"&  c #06070C",
"*  c #100A06",
"=  c #140907",
"-  c #110C07",
";  c #150C05",
":  c #140C07",
">  c #180D05",
",  c #140D08",
"<  c #160D08",
"1  c #150E08",
"2  c #170F09",
"3  c #1A100A",
"4  c #1F130B",
"5  c #000314",
"6  c #171819",
"7  c #17181A",
"8  c #24150B",
"9  c #22150C",
"0  c #22150D",
"q  c #25190F",
"w  c #28180E",
"e  c #2B1A0F",
"r  c #261B14",
"t  c #28231D",
"y  c #2C231C",
"u  c #322114",
"i  c #392315",
"p  c #3B2516",
"a  c #3C2516",
"s  c #3D2616",
"d  c #3F2616",
"f  c #362519",
"g  c #3F2A19",
"h  c #1F2022",
"j  c #1F2231",
"k  c #2A2326",
"l  c #2F2A24",
"z  c #392720",
"x  c #332820",
"c  c #2E2F32",
"v  c #303033",
"b  c #303135",
"n  c #3C3834",
"m  c #422918",
"M  c #432918",
"N  c #412A19",
"B  c #422A19",
"V  c #442A1A",
"C  c #462C1A",
"Z  c #442E1C",
"A  c #462F1C",
"S  c #4A301C",
"D  c #4B301D",
"F  c #4C311D",
"G  c #4D321D",
"H  c #4C311F",
"J  c #4D321E",
"K  c #4E321E",
"L  c #4F331F",
"P  c #4F341F",
"I  c #412E23",
"U  c #4A3121",
"Y  c #4E3320",
"T  c #4C3323",
"R  c #4D3422",
"E  c #483427",
"W  c #483228",
"Q  c #513520",
"!  c #513521",
"~  c #523620",
"^  c #523621",
"/  c #563922",
"(  c #563923",
")  c #573A23",
"_  c #583A23",
"`  c #583B23",
"'  c #5C3C22",
"]  c #593B24",
"[  c #5B3D25",
"{  c #483D32",
"}  c #403D3E",
"|  c #564339",
" . c #57463E",
".. c #644430",
"X. c #6C4A34",
"o. c #704B33",
"O. c #724F36",
"+. c #734F39",
"@. c #745037",
"#. c #71573E",
"$. c #7C553D",
"%. c #7F583D",
"&. c #7F583F",
"*. c #0E1C44",
"=. c #1A365E",
"-. c #3A3C41",
";. c #123161",
":. c #403B45",
">. c #46474D",
",. c #47494F",
"<. c #4A4C51",
"1. c #4B4D52",
"2. c #4F5055",
"3. c #525359",
"4. c #6A5746",
"5. c #6C5949",
"6. c #725B46",
"7. c #655F5F",
"8. c #726E6C",
"9. c #656972",
"0. c #686A73",
"q. c #6C6E74",
"w. c #71747D",
"e. c #72747E",
"r. c #805941",
"t. c #896047",
"y. c #88614A",
"u. c #8E644A",
"i. c #8F694F",
"p. c #A87A5D",
"a. c #88726F",
"s. c #937D67",
"d. c #897573",
"f. c #B07E60",
"g. c #9F8167",
"h. c #98856D",
"j. c #AF8062",
"k. c #B28061",
"l. c #A38F77",
"z. c #A49279",
"x. c #A8967C",
"c. c #BA9576",
"v. c #BA9879",
"b. c #2A5092",
"n. c #2859A6",
"m. c #3662A2",
"M. c #2F66B6",
"N. c #737588",
"B. c #7B7F8E",
"V. c #7E818B",
"C. c #868286",
"Z. c #848893",
"A. c #868993",
"S. c #8F929E",
"D. c #AD9A80",
"F. c #B9A387",
"G. c #BDA98C",
"H. c #9297A8",
"J. c #9B9EAB",
"K. c #919BB1",
"L. c #9DA0AD",
"P. c #A2A6B2",
"I. c #A3A6B2",
"U. c #A3A7B4",
"Y. c #A6AAB7",
"T. c #AAABB1",
"R. c #A5AAB8",
"E. c #A6AAB8",
"W. c #A7ABB8",
"Q. c #A8ACB9",
"!. c #A9ADBB",
"~. c #AAAEBB",
"^. c #B3B4B7",
"/. c #C29F80",
"(. c #CAB597",
"). c #B9BBC1",
"_. c #BDC0CA",
"`. c #CFD1D8",
"'. c #D0D1D4",
"]. c #D5D7DD",
"[. c #DEDFE4",
"{. c #E3E4E9",
"}. c #E4E6EB",
"|. c #E6E7EC",
" X c #F1F2F4",
".X c #F8F9FB",
"XX c #FCFCFD",
"oX c white",
/* pixels */
"                                                                ",
"                                                                ",
"                                                                ",
"                                                                ",
"                                                                ",
"                                                                ",
"              o % #   $ o                                       ",
"              % C L 0 g 2 2 -                                   ",
"              : u ] L Q D / C 2                                 ",
"            0 L ] _ ) ) ' _ _ C 2                               ",
"          O s _ ~ P ) ) D D ( [ q                               ",
"          O i C M D ) ) K u.6.Y m *                             ",
"          O p L C L ( Q y.f.p.X.s :                             ",
"          O p Q @.6.R i.W F.s.= 0 *                             ",
"          O e m @.k.r.j.5.G.z.y o                               ",
"            O e K r.f.f.c.v./.4.          oXoXoXoXoX            ",
"  o o o       $ @ f &.@.d.a...r               oXoXoXoXoX        ",
"  h w.e.b o     l h.#.R N.H.7.Y I               oXoXoXoXoX      ",
"  c U.~.S.V.7 y D.(.6.D | U.C.o.E               oXoXoXoXoXoX    ",
"    >.L.R.Y.Z.n z.x.{ m  .K.B.k &               oXoXoXoXoXoX    ",
"      1.J.~.Y.A.v 6 > R m.M.n.b.j             oXoXoXoXoXoXoX    ",
"        1.9.P.Q.R.e.-.x =.;.*.:.' : 5       oXoXoXoXoXoXoX      ",
"          o ,.q.]._.R.9.2.3.} 8 f 8.T.).oXoXoXoXoXoXoXoXoX      ",
"                oX X[.{.}.|.'.^.]..XoXoXoXoXoXoXoXoXoXoX        ",
"                    oXoXoXoXoXoXoXoXoXoXoXoXoXoXoXoX            ",
"                          oXoXoXoXoXoXoXoXoX                    ",
"                                                                ",
"                                                                ",
"                                                                ",
"                                                                ",
"                                                                ",
"                                                                "
};
