/* XPM */
static char *result[] = {
/* columns rows colors chars-per-pixel */
"32 32 124 2 ",
"   c #020101",
".  c #0A0604",
"X  c #0D0905",
"o  c #04060D",
"O  c #110604",
"+  c #140C06",
"@  c #180C06",
"#  c #150D08",
"$  c #180F0B",
"%  c #16100C",
"&  c #1D120C",
"*  c #060914",
"=  c #0D0F18",
"-  c #0E141D",
";  c #22150C",
":  c #25180E",
">  c #291A0F",
",  c #2C1D11",
"<  c #2B1F18",
"1  c #331F13",
"2  c #362315",
"3  c #3B2315",
"4  c #31241E",
"5  c #0D1325",
"6  c #161A2D",
"7  c #1C1E2E",
"8  c #171C31",
"9  c #181D32",
"0  c #1A2335",
"q  c #302B24",
"w  c #3C2B23",
"e  c #363029",
"r  c #3D373E",
"t  c #412717",
"y  c #412817",
"u  c #442B1A",
"i  c #492E1C",
"p  c #4C321E",
"a  c #51351F",
"s  c #4D3320",
"d  c #523621",
"f  c #563923",
"g  c #593B24",
"h  c #4E3F32",
"j  c #573F30",
"k  c #54433D",
"l  c #62422C",
"z  c #634934",
"x  c #6A4934",
"c  c #6F4D39",
"v  c #76533F",
"b  c #7B543A",
"n  c #102B57",
"m  c #1E325A",
"M  c #2E3E64",
"N  c #1E4070",
"B  c #384D74",
"V  c #3C5072",
"C  c #3A527A",
"Z  c #5C4C41",
"A  c #684E41",
"S  c #6E5C4C",
"D  c #7A5742",
"F  c #7C5943",
"G  c #725E4D",
"H  c #4E5360",
"J  c #43577A",
"K  c #65616C",
"L  c #6B646B",
"P  c #7D6A67",
"I  c #835C42",
"U  c #8F654A",
"Y  c #93674D",
"T  c #956A4E",
"R  c #816B58",
"E  c #926950",
"W  c #996C50",
"Q  c #88705B",
"!  c #92795F",
"~  c #A1775C",
"^  c #AB7B5D",
"/  c #B17E5F",
"(  c #857763",
")  c #8B7A65",
"_  c #957A62",
"`  c #AD7F62",
"'  c #AF8365",
"]  c #A9876B",
"[  c #B38061",
"{  c #B3896B",
"}  c #A58E73",
"|  c #A6927A",
" . c #AA967D",
".. c #B89477",
"X. c #BB997B",
"o. c #3B5887",
"O. c #3C5988",
"+. c #2C5395",
"@. c #2358AA",
"#. c #2762B4",
"$. c #2866BC",
"%. c #3C6DB4",
"&. c #3E70B6",
"*. c #4E6590",
"=. c #767F9C",
"-. c #837983",
";. c #867E89",
":. c #7C839D",
">. c #B39E83",
",. c #BEA486",
"<. c #BEA78A",
"1. c #888EA2",
"2. c #808CA8",
"3. c #8D92A5",
"4. c #959DB0",
"5. c #98A2B6",
"6. c #A1A4AF",
"7. c #C0A88B",
"8. c #CAAD8E",
"9. c #C2AE91",
"0. c #C6B193",
"q. c #C8B395",
"w. c #CCB798",
"e. c None",
/* pixels */
"e.e.e.e.e.e.e.e.e.e.e.e.e.e.e.e.e.e.e.e.e.e.e.e.e.e.e.e.e.e.e.e.",
"e.e.e.e.e.e.e.e.e.e.e.e.e.e.e.e.e.e.e.e.e.e.e.e.e.e.e.e.e.e.e.e.",
"e.e.e.e.e.e.e.e.e.e.e.e.e.e.e.e.e.e.e.e.e.e.e.e.e.e.e.e.e.e.e.e.",
"e.e.e.e.e.e.e.e.e.  X % # X e.# X   e.e.e.e.e.e.e.e.e.e.e.e.e.e.",
"e.e.e.e.e.e.e.e.e.  2 d p 3 X 2 2       e.e.e.e.e.e.e.e.e.e.e.e.",
"e.e.e.e.e.e.e.e.e.  . 2 g a 3 p p 2 u p :   e.e.e.e.e.e.e.e.e.e.",
"e.e.e.e.e.e.e.e.  ; , u g g a a f a g g i :   e.e.e.e.e.e.e.e.e.",
"e.e.e.e.e.e.e.. & i f g f g g g f g g f g p & e.e.e.e.e.e.e.e.e.",
"e.e.e.e.e.e.  + u f f f d f f f g a a g g g a . e.e.e.e.e.e.e.e.",
"e.e.e.e.e.e.  + u d f p i f f g a y i a g g p X e.e.e.e.e.e.e.e.",
"e.e.e.e.e.e.  # y u i y i f f g i i I T x i d 2 # e.e.e.e.e.e.e.",
"e.e.e.e.e.e.  # y i u 3 y f g p g I ^ / Y x p u +   e.e.e.e.e.e.",
"e.e.e.e.e.e.  + u f p d g d f g x E ] { ~ c 2 3 +   e.e.e.e.e.e.",
"e.e.e.e.e.e.  # u d a I Y s a Y v i >.q.G + . 1 %   e.e.e.e.e.e.",
"e.e.e.e.e.e.  # y u a I ^ Y d Q R w >.q.S O   . e.e.e.e.e.e.e.e.",
"e.e.e.e.e.e.e.. & 3 u b / ` _ >.>.) <.9.| Z   e.e.e.e.e.e.e.e.e.",
"e.e.e.e.e.e.e.e.  ; 1 l Y ^ X.7.9.q.9.9.8.Q . e.e.e.e.e.e.e.e.e.",
"e.e.e.e.e.e.e.e.e.  > 2 d W ^ ..,.>.7.7.] x   e.e.e.e.e.e.e.e.e.",
"e.e.e.e.e.e.e.e.e.e.  ; u d W ' ` ` ` / j   e.e.e.e.e.e.e.e.e.e.",
"e.e.e.e.e.e.e.e.e.e.  & t t l P ;.-.-.A ,   e.e.e.e.e.e.e.e.e.e.",
"e.e.e.e.e.e.e.e.e.e.  @ y p d L =.=.1.h @   e.e.e.e.e.e.e.e.e.e.",
"e.e.e.e.e.e.e.e.e.e.q j z g g L 2.3.6.Z 1 < e.e.e.e.e.e.e.e.e.e.",
"e.e.e.e.e.e.e.e.e.  ( q.} g f K 2.4.4.Z b F   e.e.e.e.e.e.e.e.e.",
"e.e.e.e.e.e.e.e.e.  ( w.} g f J %.%.%.r b F   e.e.e.e.e.e.e.e.e.",
"e.e.e.e.e.e.e.e.e.= e H *.o.o.+.@.$.#.0 > q = e.e.e.e.e.e.e.e.e.",
"e.e.e.e.e.e.e.e.e.e.  5 M C N n m B V -   * e.e.e.e.e.e.e.e.e.e.",
"e.e.e.e.e.e.e.e.8 8 o & u p +   $ u s % * e.9 9 e.e.e.e.e.e.e.e.",
"e.e.e.e.e.e.e.e.e.9 6 6 7 9 6 6 6 7 7 6 6 8 9 e.e.e.e.e.e.e.e.e.",
"e.e.e.e.e.e.e.e.e.e.8 8 8 8 8 9 8 8 8 8 9 9 e.e.e.e.e.e.e.e.e.e.",
"e.e.e.e.e.e.e.e.e.e.e.e.e.e.e.e.e.e.e.e.e.e.e.e.e.e.e.e.e.e.e.e.",
"e.e.e.e.e.e.e.e.e.e.e.e.e.e.e.e.e.e.e.e.e.e.e.e.e.e.e.e.e.e.e.e.",
"e.e.e.e.e.e.e.e.e.e.e.e.e.e.e.e.e.e.e.e.e.e.e.e.e.e.e.e.e.e.e.e."
};
