/* XPM */
static char *ezgif_com_gif_maker_21665477616[] = {
/* columns rows colors chars-per-pixel */
"32 32 124 2 ",
"   c None",
".  c #020101",
"X  c #0A0604",
"o  c #0D0805",
"O  c #04060C",
"+  c #110604",
"@  c #140C07",
"#  c #190E07",
"$  c #150D08",
"%  c #180F0B",
"&  c #16100D",
"*  c #1E130C",
"=  c #070A14",
"-  c #070C1A",
";  c #0E131C",
":  c #191613",
">  c #23160D",
",  c #25180E",
"<  c #2C1A0D",
"1  c #2C1D11",
"2  c #331F13",
"3  c #362315",
"4  c #3B2415",
"5  c #36291F",
"6  c #0E162B",
"7  c #151A2C",
"8  c #1C1E2E",
"9  c #171C31",
"0  c #181D32",
"q  c #1B2435",
"w  c #3C2B23",
"e  c #412817",
"r  c #442B1A",
"t  c #492E1C",
"y  c #4C321E",
"u  c #51351F",
"i  c #4D3320",
"p  c #4A3528",
"a  c #523621",
"s  c #563923",
"d  c #593B24",
"f  c #553B28",
"g  c #573F30",
"h  c #53433C",
"j  c #58473E",
"k  c #51483C",
"l  c #62422C",
"z  c #6A4934",
"x  c #6F4D39",
"c  c #714B34",
"v  c #74533F",
"b  c #7D563D",
"n  c #102B57",
"m  c #1E325A",
"M  c #403A40",
"N  c #1E4070",
"B  c #2B416F",
"V  c #324168",
"C  c #384D74",
"Z  c #3C5072",
"A  c #3A527A",
"S  c #5C4F42",
"D  c #684E41",
"F  c #6E5C4C",
"G  c #755D47",
"H  c #725E4D",
"J  c #766552",
"K  c #7D705D",
"L  c #43577A",
"P  c #65616C",
"I  c #6B646B",
"U  c #7D6A67",
"Y  c #825C42",
"T  c #8F654A",
"R  c #93674D",
"E  c #956A4E",
"W  c #816B58",
"Q  c #926950",
"!  c #996C50",
"~  c #88705B",
"^  c #92795F",
"/  c #A1775C",
"(  c #AB7B5D",
")  c #B17E5F",
"_  c #8E7A65",
"`  c #8C7D68",
"'  c #957A62",
"]  c #AD7F62",
"[  c #9C856A",
"{  c #AF8365",
"}  c #A9876B",
"|  c #B38061",
" . c #B3896B",
".. c #A6927A",
"X. c #AB957B",
"o. c #B89477",
"O. c #BB997B",
"+. c #395786",
"@. c #3C5988",
"#. c #2C5395",
"$. c #2358AA",
"%. c #2762B4",
"&. c #2866BC",
"*. c #3C6DB4",
"=. c #3E70B6",
"-. c #767F9C",
";. c #837983",
":. c #867E89",
">. c #7C839D",
",. c #B39E83",
"<. c #BEA486",
"1. c #BCA689",
"2. c #888EA2",
"3. c #808CA8",
"4. c #8D92A5",
"5. c #959DB0",
"6. c #98A2B6",
"7. c #A1A4AF",
"8. c #C0A88B",
"9. c #CAAD8E",
"0. c #C2AE91",
"q. c #C6B193",
"w. c #C8B395",
"e. c #D4BE9F",
/* pixels */
"                                                                ",
"                                                                ",
"                                                                ",
"                            . o @   o @ $ o .                   ",
"                        . X . 4 3 o 3 u a 3 .                   ",
"                    . > t t 2 t y 3 a d 3 X .                   ",
"                  . , t d d u a a u s d t 1 > .                 ",
"                  * t d d d d d d d s s d s r * o               ",
"                o i d d s a a s s s d u s d a r $ .             ",
"                o y d d s t r i d d s t t d s r @ .             ",
"              @ 3 u t z R Y t t d s d r e t r e $ .             ",
"            . $ e y z R ) ( Y f y s d e 4 e y e $ .             ",
"            . $ e 2 x /  .{ Q z d s u d u t s e @ .             ",
"            . $ 2 X @ H q.,.r G T u y R Y a a r $ .             ",
"                X . + F w.,.w K ^ a R ( Y u r e $ .             ",
"                  . S ..0.1.' X.,.' ] | b r 4 * X               ",
"                  O ~ 9.0.0.w.0.1.O.( R l 2 > .                 ",
"                  . z } 1.1.1.1.o.( ! s 4 , .                   ",
"                    . g ) ] ] ] ) ! i e * .                     ",
"                    . , D ;.:.:.U l r 4 # .                     ",
"                    p i g 2.>.-.I a u G J k                     ",
"                  . Y b j 6.4.>.I s d X.e.` X                   ",
"                  . v c S 5.6.>.P a d [ 1.K .                   ",
"                    & < M =.=.*.L d d f 5 :                     ",
"                    - o q %.&.$.#.@.+.B 6 .                     ",
"                      O ; C C m n N A V 7 .                     ",
"                0 9   = & u r % . o y t * O 7 0                 ",
"                  9 0 7 7 8 8 7 7 7 8 0 7 7 0                   ",
"                    0 0 9 9 9 0 0 0 9 9 0 0                     ",
"                                                                ",
"                                                                ",
"                                                                "
};
