/* XPM */
static char *ezgif_com_gif_maker_41665483021[] = {
/* columns rows colors chars-per-pixel */
"32 32 171 2 ",
"   c None",
".  c gray2",
"X  c #0E191A",
"o  c gray12",
"O  c #171C31",
"+  c #181D3A",
"@  c #181D3B",
"#  c #191C57",
"$  c #1B1E59",
"%  c #1B1F59",
"&  c #1D235A",
"*  c #1D235D",
"=  c #1D245D",
"-  c #1D245E",
";  c #202763",
":  c #212B64",
">  c #222866",
",  c #212D65",
"<  c #242C68",
"1  c #233068",
"2  c #233168",
"3  c #233169",
"4  c #243169",
"5  c #27306E",
"6  c #2A3774",
"7  c #2A3A75",
"8  c #2D3C7A",
"9  c #2D3C7B",
"0  c #2E3D7A",
"q  c #5A336D",
"w  c #5B346D",
"e  c #40387E",
"r  c #2D457B",
"t  c #314A77",
"y  c #30437D",
"u  c #314B78",
"i  c #3A5F7A",
"p  c #3A6A6F",
"a  c #3F6F74",
"s  c #58457A",
"d  c #407073",
"f  c #407173",
"g  c #45797E",
"h  c #923A55",
"j  c #933B55",
"k  c #2F3A88",
"l  c #324182",
"z  c #344486",
"x  c #344586",
"c  c #324F83",
"v  c #33418A",
"b  c #374D8B",
"n  c #35498E",
"m  c #374A8E",
"M  c #375C8D",
"N  c #385D8D",
"B  c #324991",
"V  c #3B5391",
"C  c #3C5795",
"Z  c #3E628B",
"A  c #3A6192",
"S  c #3A6393",
"D  c #3B6393",
"F  c #4C5489",
"G  c #405E96",
"H  c #477D81",
"J  c #4E7E83",
"K  c #426398",
"L  c #44679A",
"P  c #45699B",
"I  c #456A9B",
"U  c #416A9D",
"Y  c #426B9D",
"T  c #446A9C",
"R  c #457191",
"E  c #467797",
"W  c #4A7C96",
"Q  c #41719E",
"!  c #49739F",
"~  c #4B7D98",
"^  c #4365A0",
"/  c #4567A3",
"(  c #4468A2",
")  c #476AA3",
"_  c #466EA9",
"`  c #486FA9",
"'  c #4B75A1",
"]  c #467CA7",
"[  c #487CA1",
"{  c #4F7EA4",
"}  c #4571AB",
"|  c #4770AA",
" . c #4973A9",
".. c #4972AA",
"X. c #477EA9",
"o. c #4F7FAA",
"O. c #497DAC",
"+. c #587DA4",
"@. c #4F8083",
"#. c #4D809B",
"$. c #4D819C",
"%. c #4F859F",
"&. c #55979D",
"*. c #56989D",
"=. c #57989E",
"-. c #738293",
";. c #4981AE",
":. c #4A82AE",
">. c #4A83AE",
",. c #5289A8",
"<. c #548BA8",
"1. c #5389AE",
"2. c #5899A0",
"3. c #599DA1",
"4. c #5290AF",
"5. c #5A99AF",
"6. c #4F89B1",
"7. c #508EB3",
"8. c #5493B3",
"9. c #5090B4",
"0. c #5091B5",
"q. c #5898B2",
"w. c #5598B9",
"e. c #589CB8",
"r. c #599EB9",
"t. c #5EA1B1",
"y. c #5FA4B2",
"u. c #5FA4B3",
"i. c #5BA1B5",
"p. c #59A4B7",
"a. c #5DA5B6",
"s. c #5CA5B7",
"d. c #5EA6B7",
"f. c #5FA7B7",
"g. c #5EA9B6",
"h. c #5AA0BB",
"j. c #5EA6B9",
"k. c #5FA8BB",
"l. c #60A8AF",
"z. c #61AAAF",
"x. c #61A8B4",
"c. c #63ACB6",
"v. c #62ACB7",
"b. c #63ACB7",
"n. c #64AFB7",
"m. c #62ACB8",
"M. c #64AFB8",
"N. c #60AABE",
"B. c #61B0B7",
"V. c #60B1BB",
"C. c #65B0B8",
"Z. c #65B1B8",
"A. c #65B2B8",
"S. c #65B2B9",
"D. c #66B2B8",
"F. c #66B3B9",
"G. c #66B3BA",
"H. c #66B4B9",
"J. c #67B4BB",
"K. c #67B5BB",
"L. c #67B5BC",
"P. c #68B6BC",
"I. c #68B7BD",
"U. c #68B6BE",
"Y. c #69B7BE",
"T. c #6ABABF",
"R. c #6BBCC3",
"E. c gray74",
"W. c #80C3C7",
"Q. c #96C6CB",
"!. c #97C8CB",
/* pixels */
"                                                                ",
"                                                                ",
"                                                                ",
"                                                                ",
"                                                                ",
"                                                                ",
"                                                                ",
"                        1 1 1 1 1 1 1 1                         ",
"                      4 Q X.X.] ] ] ] Q 4                       ",
"                    5 b >.r.s.p.R.k.x.e.%.u                     ",
"                  # 7  .8.g.W.Q.H &.R.t.H p u                   ",
"                  : c 7.c.c.Q.E.o p R.2.X d $.-                 ",
"                - N >.9.c.L.H o . a R.&.X a $.-                 ",
"                - D w.a.C.L.&.a a 2.M.l.g 3.W -                 ",
"                - D e.Z.H.H.H.T.R.J.M.G.L.R.~ -                 ",
"                - D e.c.y.t.x.C.n.C.C.C.C.M.R -                 ",
"                - D r.a.G m ! M.M.C.C.C.n.' 0 *                 ",
"                - D h.x.<.V n Y Y P P P P { Z *                 ",
"                - c [ j.F.<.F w w e k v K q.E -                 ",
"                  $ r 6.j.M.-.j h s B C 5.7.N -                 ",
"                  $ 7 / 6.7.7.+.+.o.>.O./ r ,                   ",
"                    < 0 ^  ._ _ | |  .( 9 >                     ",
"                      ; l z z z x x x l ;                       ",
"                        & & & & & & & &                         ",
"                        + @ @ @ @ @ + +                         ",
"                    O O                 O O                     ",
"                  O O O O O O O O O O O O O O                   ",
"                  O O O O O O O O O O O O O O                   ",
"                  O O O O O O O O O O O O O O                   ",
"                    O O O O O O O O O O O O                     ",
"                                                                ",
"                                                                "
};
