/* XPM */
static char *_2d9094dd08949e5dd22cbde44bb837c7uUxuhCMjSfVu4oQ[] = {
/* columns rows colors chars-per-pixel */
"32 32 157 2 ",
"   c None",
".  c #1D151B",
"X  c #201415",
"o  c #2D1C14",
"O  c #20161A",
"+  c #23181A",
"@  c #2C1E1A",
"#  c #311F16",
"$  c #0A2D0E",
"%  c #12220F",
"&  c #0B310F",
"*  c #0C2715",
"=  c #0A2911",
"-  c #0F2B1A",
";  c #0C3510",
":  c #0E3A13",
">  c #163113",
",  c #113B13",
"<  c #2E2317",
"1  c #252F17",
"2  c #2E2A18",
"3  c #342117",
"4  c #33231A",
"5  c #3A261C",
"6  c #36291B",
"7  c #3D291D",
"8  c #2D351A",
"9  c #3D311E",
"0  c #161625",
"q  c #1A1723",
"w  c #181E20",
"e  c #161B2E",
"r  c #1A1B2A",
"t  c #171C31",
"y  c #221E28",
"u  c #13202A",
"i  c #2E2427",
"p  c #27222A",
"a  c #2B252C",
"s  c #412C1F",
"d  c #472F20",
"f  c #473022",
"g  c #4B3223",
"h  c #513726",
"j  c #533927",
"k  c #553B29",
"l  c #5A3E2A",
"z  c #0F4115",
"x  c #134316",
"c  c #184617",
"v  c #124718",
"b  c #154C1A",
"n  c #1C4D1A",
"m  c #1C541D",
"M  c #1E591F",
"N  c #22551D",
"B  c #22591E",
"V  c #235D20",
"C  c #246222",
"Z  c #2A6624",
"A  c #276825",
"S  c #2C6B26",
"D  c #2E6F28",
"F  c #316F27",
"G  c #2E7128",
"H  c #33752A",
"J  c #357B2C",
"K  c #397F2E",
"L  c #397D2D",
"P  c #3A792C",
"I  c #5D412C",
"U  c #63452F",
"Y  c #664730",
"T  c #674831",
"R  c #6B4B33",
"E  c #714F36",
"W  c #755337",
"Q  c #755338",
"!  c #39802E",
"~  c #39812E",
"^  c #3B802E",
"/  c #3A822F",
"(  c #3B822F",
")  c #3B832F",
"_  c #3C812F",
"`  c #3D812F",
"'  c #3E812F",
"]  c #3D822F",
"[  c #3C832F",
"{  c #3F832F",
"}  c #3C8430",
"|  c #3D8430",
" . c #3C8530",
".. c #3D8530",
"X. c #3E8430",
"o. c #3E8530",
"O. c #3F8430",
"+. c #3D8631",
"@. c #3E8630",
"#. c #3F8731",
"$. c #3F8831",
"%. c #408831",
"&. c #408932",
"*. c #418932",
"=. c #418B32",
"-. c #418A32",
";. c #428B33",
":. c #438A32",
">. c #458A32",
",. c #428C33",
"<. c #438C33",
"1. c #458D33",
"2. c #468C33",
"3. c #448E34",
"4. c #458E34",
"5. c #468F34",
"6. c #459035",
"7. c #469135",
"8. c #479135",
"9. c #469035",
"0. c #479235",
"q. c #489135",
"w. c #489235",
"e. c #489336",
"r. c #499336",
"t. c #499436",
"y. c #4B9537",
"u. c #4A9537",
"i. c #4A9637",
"p. c #4B9637",
"a. c #4C9637",
"s. c #4C9737",
"d. c #4C9738",
"f. c #4C9838",
"g. c #4D9838",
"h. c #4D9938",
"j. c #4E9938",
"k. c #4E9A39",
"l. c #4F9A39",
"z. c #4F9B39",
"x. c #4E9A38",
"c. c #4F9C39",
"v. c #509B39",
"b. c #509C39",
"n. c #509D3A",
"m. c #519D3A",
"M. c #509C3A",
"N. c #519E3A",
"B. c #529F3A",
"V. c #529F3B",
"C. c #539F3B",
"Z. c #53A03B",
"A. c #53A13B",
"S. c #52A03B",
"D. c #54A13B",
"F. c #54A13C",
"G. c #54A23C",
/* pixels */
"                                                                ",
"                                                                ",
"                          B P P F N     n B                     ",
"                n P L Z Z y.C.F.C.a.%.H a.v.>.n B n             ",
"              ; S C.S.V.z.t.C.A.C.C.A.z.C.A.S.1.C.1.n           ",
"          S F H 1.z.S.S.C.A.A.C.C.C.A.A.C.A.C.A.C.>.S x         ",
"        V z.C.C.D.C.A.D.S.S.A.C.v.C.C.z.z.C.A.A.C.a.C.H ,       ",
"      B K r.D.C.F.S.C.C.F.S.C.r.L H S D 1.A.C.A.D.D.C.a.B       ",
"    c | $.c.c.z.C.C.S.S.D.A.C.C.C.r.H %.C.C.S.C.D.C.F.F.' x     ",
"    n r.8.K S K S.A.F.S.C.F.S.F.C.F.S.D.A.A.F.D.C.F.C.A.C.n     ",
"    : m C m S | z.A.A.C.C.S.A.F.A.A.A.C.A.C.A.C.A.F.C.A.P ,     ",
"    B ' S C t.z.r.F.C.A.A.D.C.S.F.C.F.S.C.D.F.S.A.C.A.A.L x     ",
"  B y.z.J m L A.C.A.C.z.C.S.S.S.C.A.A.C.S.F.A.C.S.8.' t.C.S &   ",
"  m 8.C.C.} D ;.F.C.8.J L | z.F.C.r.z.A.C.D.C.D.S.H V J [ Z     ",
"  & m S ( 8.%.Z P =.t.z.1.S G 1.| ( y.S.A.C.A.A.S.c.%.z.%.B     ",
"    ; S %.J %.G G 8.c.S.F.C.| ( y.C.F.S.F.S.C.C.A.S.%.K ( C &   ",
"  $ n H | S C S G 3.3.S.S.C.%.( f.C.c.C.z.S.C.c.} J H J J m :   ",
"  & D r.C b ' C.y. .3.8.y.c.c.z.e.c.| S | z.e.8.H %.f.~ G m :   ",
"    v M b C Z Z } ( G K  .3.z.A.S.S.z.G K $.c.t.H K } J C A :   ",
"      ; : S =.[  .K C G c.$.S z.F.c.c.6.G C G Z G J C b x :     ",
"        & v B [ J f.8.G L H V  .t.[ ( J S v : b S M b ; &       ",
"          : : : C G S x v b A J S M C b m : $ ; : z z &         ",
"              & : : ; $ = : b b x ; , , > % * $ = - -           ",
"                u 6 6 4 9 1 1 8 2 < < 6 3 3 0 u u               ",
"              e @ k f k g g T R k 7 k j 7 g 5 0   t t t         ",
"            t t + d R Y d d E Y l I R R 7 d I 5 q   t t t       ",
"          t t e @ E Q I # k Q T I l E R l # h l +   t t t       ",
"            t e @ k k 4 d Q R Y f o j R Q k 4 i r   t t         ",
"            t t t t   . k R k g @ X 5 l R T 5 0   t t           ",
"              t t t   r p a a p r   r a a a y e t t             ",
"                t t t             t t t       t                 ",
"                        t t t t t t       t                     "
};
