/* XPM */
static char *ezgif_com_gif_maker_31665479584[] = {
/* columns rows colors chars-per-pixel */
"32 32 172 2 ",
"   c None",
".  c #322B2B",
"X  c #3A2E2C",
"o  c #262435",
"O  c #2C2A3E",
"+  c #41322A",
"@  c #423C2C",
"#  c #4D3A29",
"$  c #4F3A26",
"%  c #513C28",
"&  c #473E37",
"*  c #4A432F",
"=  c #5D4426",
"-  c #54432C",
";  c #564D2E",
":  c #584F2F",
">  c #59502F",
",  c #484232",
"<  c #554B3A",
"1  c #5C5431",
"2  c #684C26",
"3  c #6D582C",
"4  c #745324",
"5  c #7C5A24",
"6  c #73572C",
"7  c #755A2E",
"8  c #665D34",
"9  c #6C6233",
"0  c #7E6236",
"q  c #796F39",
"w  c #7C7031",
"e  c #302E41",
"r  c #363547",
"t  c #3D3C4D",
"y  c #413F54",
"u  c #4A4643",
"i  c #4A484B",
"p  c #5E5A4C",
"a  c #5E5946",
"s  c #444355",
"d  c #4D4B54",
"f  c #48485A",
"g  c #5F5D5C",
"h  c #615D57",
"j  c #6D6647",
"k  c #706C53",
"l  c #7C765C",
"z  c #494C63",
"x  c #5A5969",
"c  c #5B5E72",
"v  c #615F63",
"b  c #5E606F",
"n  c #61606E",
"m  c #716F63",
"M  c #74726A",
"N  c #636574",
"B  c #676A7D",
"V  c #6C6C79",
"C  c #7F7D7E",
"Z  c #AD781C",
"A  c #B47E1C",
"S  c #866726",
"D  c #8A722B",
"F  c #83673A",
"G  c #85683C",
"H  c #817435",
"J  c #847835",
"K  c #967439",
"L  c #A77E37",
"P  c #C07F1A",
"I  c #BA811A",
"U  c #8E8037",
"Y  c #978536",
"T  c #AA8627",
"R  c #B98C24",
"E  c #BD982A",
"W  c #AA953B",
"Q  c #BEA132",
"!  c #D1941A",
"~  c #CF9522",
"^  c #C69926",
"/  c #D09623",
"(  c #D29826",
")  c #D79B31",
"_  c #CFA826",
"`  c #CBA527",
"'  c #D2A925",
"]  c #D9AA26",
"[  c #DEBD2C",
"{  c #CBB735",
"}  c #E1C32E",
"|  c #E2C837",
" . c #988E4F",
".. c #9B904C",
"X. c #8E8651",
"o. c #AEA150",
"O. c #A29C6F",
"+. c #CCBD4D",
"@. c #CBBA4A",
"#. c #DABF4F",
"$. c #C9BB59",
"%. c #C7B957",
"&. c #D4BD51",
"*. c #CABD64",
"=. c #CABD68",
"-. c #C9BD72",
";. c #DAC04F",
":. c #DAC251",
">. c #DAC05D",
",. c #E5C846",
"<. c #E8CB47",
"1. c #E6C948",
"2. c #E6D143",
"3. c #E8D64E",
"4. c #E5C852",
"5. c #E6CB59",
"6. c #EBD957",
"7. c #EBDA5A",
"8. c #E2D157",
"9. c #D2C463",
"0. c #D7C962",
"q. c #DFC86F",
"w. c #D8CA64",
"e. c #DFD164",
"r. c #D0C578",
"t. c #E3D462",
"y. c #EDDE63",
"u. c #E1CC7C",
"i. c #EFE069",
"p. c #F0E16D",
"a. c #F2E576",
"s. c #F3E679",
"d. c #F4E87F",
"f. c #727583",
"g. c #767887",
"h. c #797C8B",
"j. c #89878A",
"k. c #858895",
"l. c #8C909C",
"z. c #A49F84",
"x. c #9A9EAA",
"c. c #9BA1AA",
"v. c #A5A5AC",
"b. c #A2A7B0",
"n. c #A9AEB7",
"m. c #ACB3BB",
"M. c #B5B6BC",
"N. c #D0C787",
"B. c #E0D092",
"V. c #F5E983",
"C. c #F7EC8B",
"Z. c #F8ED8C",
"A. c #F7ED98",
"S. c #F9F09E",
"D. c #CDC9A6",
"F. c #D9D4AC",
"G. c #E7E1AD",
"H. c #F9F1A3",
"J. c #FAF3B2",
"K. c #B6C0C6",
"L. c #C5CAD1",
"P. c #CCD5DA",
"I. c #C9D2D7",
"U. c #D4D9DF",
"Y. c #FBF6C4",
"T. c #FDF9D8",
"R. c #D4DDE0",
"E. c #DADEE2",
"W. c #DDE6E9",
"Q. c #E2EBED",
"!. c #FEFCEA",
"~. c #FFFFFD",
/* pixels */
"                                                                ",
"                                                                ",
"                                                                ",
"                                                                ",
"                                                                ",
"                                                                ",
"                                                                ",
"                                                                ",
"                                                                ",
"                                                                ",
"                - a p p p p p p p p a a h v v v n               ",
"        C O.Y = T +.&.:.#.#.#.#.#.#.#.#.u.u.B.N.D.j ..z.j.      ",
"      f F.0.Y % % S R ~ ~ ~ ~ ~ / ~ ~ ~ ( ( E J 9 , Y $.G.x     ",
"      d r.9   . Z [ 6.y.a.d.s.s.s.s.s.C.C.V.A.a.@.,   > 9.g     ",
"      i =.;   + I } p.V.C.C.C.C.C.C.C.Y.Y.T.~.J.t.1   @ -.n     ",
"      u $.1   + I [ y.V.C.C.C.C.C.C.C.C.Z.Y.!.H.t.;   @ *.h     ",
"      u $.;   + I [ p.C.C.C.C.C.C.C.C.C.Z.Z.S.H.t.;   @ %.p     ",
"      u 9.q   X I [ i.a.s.a.C.C.C.C.C.C.Z.V.V.A.8.*   8 >.p     ",
"        $.e.W 4 A [ | i.y.6.V.s.Z.Z.C.C.Z.V.s.7.{ w o.0.0.<     ",
"        8 H H 2 4 ! [ | 2.6.7.6.6.6.6.6.6.6.2.} D 9 J H 9       ",
"                  5 A / ' _ ' ' ' ' ' ' ' ' ^ S                 ",
"                    # % % % + 2 ~ 5 + % % % #                   ",
"                            & K ( L f                           ",
"                          = Q :.:.#.r.l                         ",
"                            @ T ' E - .                         ",
"                    1 j k X.@.3.i.i.;. .M M V                   ",
"                  = ` ;.<.,.<.<.,.,.<.,.4.5.&.9                 ",
"              o O & F F 7 7 0 G 0 6 7 G G 7 6 < f t             ",
"              e z h.R.L.c z n.E.c.z B I.I.B f x.W.v.            ",
"              o t g.E.I.x f m.W.c.s N R.W.N s c.Q.M.            ",
"              N m.c.g.h.n.m.k.f.l.m.b.g.g.b.m.l.g.V             ",
"              h.P.c.e t K.I.b O f.P.m.r r m.P.f.O t             "
};
