/* XPM */
static char *result[] = {
/* columns rows colors chars-per-pixel */
"32 32 238 2 ",
"   c #201E2F",
".  c #372E26",
"X  c #3A2C28",
"o  c #2D2C3E",
"O  c #2F2F3F",
"+  c #3A3331",
"@  c #3D393A",
"#  c #42332B",
"$  c #443A2E",
"%  c #4C452E",
"&  c #4C452F",
"*  c #5C4326",
"=  c #594429",
"-  c #554D2E",
";  c #4E4734",
":  c #644D27",
">  c #664F27",
",  c #6C4D24",
"<  c #6E5226",
"1  c #7D5721",
"2  c #7F5821",
"3  c #7B5D25",
"4  c #7B5D26",
"5  c #7E5F25",
"6  c #635930",
"7  c #6F602F",
"8  c #7B652C",
"9  c #77692F",
"0  c #7D682F",
"q  c #706232",
"w  c #343346",
"e  c #373749",
"r  c #3C3C4F",
"t  c #514C40",
"y  c #514D43",
"u  c #534F47",
"i  c #535047",
"p  c #54504A",
"a  c #54504B",
"s  c #54504E",
"d  c #414050",
"f  c #404150",
"g  c #434354",
"h  c #444355",
"j  c #4C4C5B",
"k  c #575155",
"l  c #545256",
"z  c #595254",
"x  c #55535E",
"c  c #54525F",
"v  c #65604F",
"b  c #58596C",
"n  c #5A5B6E",
"m  c #787677",
"M  c #767478",
"N  c #996A1E",
"B  c #AB781E",
"V  c #825A21",
"C  c #845F23",
"Z  c #836224",
"A  c #846324",
"S  c #846325",
"D  c #856424",
"F  c #9F7D26",
"G  c #807436",
"H  c #877930",
"J  c #8B7E36",
"K  c #A47C20",
"L  c #857A42",
"P  c #867C44",
"I  c #867D46",
"U  c #827E70",
"Y  c #8F823A",
"T  c #8F833C",
"R  c #948033",
"E  c #90833C",
"W  c #A3842C",
"Q  c #B68A22",
"!  c #AB8C34",
"~  c #B99835",
"^  c #B2A239",
"/  c #CA971F",
"(  c #CB9820",
")  c #C49F2E",
"_  c #C49F2F",
"`  c #C6A12A",
"'  c #C6A12F",
"]  c #D9AB22",
"[  c #D9AB23",
"{  c #DAAC23",
"}  c #DBAD23",
"|  c #D6A32C",
" . c #D6A32D",
".. c #D1A52E",
"X. c #D8A42D",
"o. c #D2B12B",
"O. c #DDB829",
"+. c #C6A130",
"@. c #C6A231",
"#. c #C7A335",
"$. c #C8A331",
"%. c #C9A431",
"&. c #CBA73B",
"*. c #DAA93F",
"=. c #D5B133",
"-. c #D4B937",
";. c #D9C239",
":. c #E1C630",
">. c #E2C634",
",. c #E2C739",
"<. c #E3C839",
"1. c #E4C838",
"2. c #E4C939",
"3. c #E4C83A",
"4. c #948543",
"5. c #948945",
"6. c #9C8A46",
"7. c #8D8555",
"8. c #978F58",
"9. c #978F59",
"0. c #989059",
"q. c #AD9E42",
"w. c #AEA14D",
"e. c #AEA24E",
"r. c #BFA252",
"t. c #B9AC52",
"y. c #B9AC53",
"u. c #BAAD53",
"i. c #BBAE55",
"p. c #BAAD56",
"a. c #BBAE56",
"s. c #BAAD58",
"d. c #BEB154",
"f. c #BFB25C",
"g. c #9B9361",
"h. c #98926B",
"j. c #84817D",
"k. c #999470",
"l. c #9B9679",
"z. c #9E9879",
"x. c #A19A68",
"c. c #A69D7C",
"v. c #BFB361",
"b. c #BCB275",
"n. c #CCAE48",
"m. c #DEAD4B",
"M. c #C7B749",
"N. c #CDB04D",
"B. c #D4BC45",
"V. c #C8BA52",
"C. c #C9BB56",
"Z. c #DCB35D",
"A. c #CCBF62",
"S. c #C0B56D",
"D. c #E8D54D",
"F. c #E8D64D",
"G. c #E5C951",
"H. c #E7CC58",
"J. c #E7CC59",
"K. c #E7CD5D",
"L. c #E7CD5F",
"P. c #EBD956",
"I. c #E7D05D",
"U. c #E8D35C",
"Y. c #EBD959",
"T. c #EBDB5B",
"R. c #ECDC5B",
"E. c #EDDC5E",
"W. c #EDDD5E",
"Q. c #ECDC5F",
"!. c #DECA60",
"~. c #DCCD67",
"^. c #E7CD60",
"/. c #EDDD60",
"(. c #EFDE62",
"). c #EFE06A",
"_. c #F3E36C",
"`. c #F0E270",
"'. c #F3E470",
"]. c #F1E374",
"[. c #F2E474",
"{. c #F2E477",
"}. c #F3E679",
"|. c #F3E77B",
" X c #F4E77C",
".X c #F4E77E",
"XX c #F5E87A",
"oX c #F4E87F",
"OX c #737783",
"+X c #848286",
"@X c #968E89",
"#X c #958E8B",
"$X c #968E8A",
"%X c #9B9881",
"&X c #9C9880",
"*X c #8C8B93",
"=X c #8C8C95",
"-X c #8E919C",
";X c #90949F",
":X c #A09D90",
">X c #9094A0",
",X c #9195A0",
"<X c #9296A1",
"1X c #ACB6BD",
"2X c #D5CF9D",
"3X c #D5CF9F",
"4X c #F5E981",
"5X c #F7EB81",
"6X c #F7EB83",
"7X c #F7EB85",
"8X c #F7EB86",
"9X c #F6EB87",
"0X c #F8EC83",
"qX c #F6EB88",
"wX c #F7EC88",
"eX c #F7EC89",
"rX c #F7EC8A",
"tX c #F7EC8B",
"yX c #F7ED8F",
"uX c #F8ED8A",
"iX c #F8ED8C",
"pX c #F8EE8C",
"aX c #F7ED91",
"sX c #F8ED90",
"dX c #F8EE97",
"fX c #F9F0A2",
"gX c #FBF5BB",
"hX c #BAC3C9",
"jX c #BAC4CA",
"kX c #D3DADE",
"lX c #D2DADF",
"zX c #D8DCDF",
"xX c #FBF6C1",
"cX c #FCF9D7",
"vX c #FCF9D8",
"bX c #FDFAD8",
"nX c #FEFBDA",
"mX c None",
/* pixels */
"mXmXmXmXmXmXmXmXmXmXmXmXmXmXmXmXmXmXmXmXmXmXmXmXmXmXmXmXmXmXmXmX",
"mXmXmXmXmXmXmXmXmXmXmXmXmXmXmXmXmXmXmXmXmXmXmXmXmXmXmXmXmXmXmXmX",
"mXmXmXmXmXmXmXmXmXmXmXmXmXmXmXmXmXmXmXmXmXmXmXmXmXmXmXmXmXmXmXmX",
"mXmXmXmXmXmXmXmXmXmXmXmXmXmXmXmXmXmXmXmXmXmXmXmXmXmXmXmXmXmXmXmX",
"mXmXmXmXmXmXmXmXmXmXmXmXmXmXmXmXmXmXmXmXmXmXmXmXmXmXmXmXmXmXmXmX",
"mXmXmXmXmXmXmXmXmXmXmXmXmXmXmXmXmXmXmXmXmXmXmXmXmXmXmXmXmXmXmXmX",
"mXmXmXmXmXmXmXmXmXmXmXmXmXmXmXmXmXmXmXmXmXmXmXmXmXmXmXmXmXmXmXmX",
"mXmXmXmXmXmXmXmXmXmXmXmXmXmXmXmXmXmXmXmXmXmXmXmXmXmXmXmXmXmXmXmX",
"mXmXmXmXmXmXmXmXmXmXmXmXmXmXmXmXmXmXmXmXmXmXmXmXmXmXmXmXmXmXmXmX",
"mXmXmXmXmXmXmXmXmXmXmXmXmXmXmXmXmXmXmXmXmXmXmXmXmXmXmXmXmXmXmXmX",
"mXmXmXmXmXmXmXmX> 4.0.8.8.8.8.8.8.8.8.k.%X&X:Xm mXmXmXmXmXmXmXmX",
"mXmXmXmXmXj.g.0 = R ~ X. . . . . . .| *.m.r.x.v L z.+XmXmXmXmXmX",
"mXmXmXmXmX2Xd.8 * Q -.G.H.J.J.J.J.H.^.L.K.!.M.6 G f.3XmXmXmXmXmX",
"mXmXmXmXl S.- mXV } R.|.wXpXiXiXiXuXgXxXbXnX0XY mX- v.s mXmXmXmX",
"mXmXmXmXa s.mXmXV [ T.oXtXrXrXrXrXrXaXdXcXvX8XE mXmXb.x mXmXmXmX",
"mXmXmXmXu u.mXmXV ] Q.iXrXrXrXrXrXrXrXeXyXfX7XT mXmXs.p mXmXmXmX",
"mXmXmXmXi y.mXmXV ] /.qXeXtXrXrXrXrXrXrXrXsX6XE mXmXt.i mXmXmXmX",
"mXmXmXmXy A.P + 2 { F.{.`.].9XeXtXtXtXtX.X9X_.J @ I A.y mXmXmXmX",
"mXmXmXmXmXe.V.W 1 ( :.D.Y.).[. X4X4X4X4X}.W.;.H q.C.w.mXmXmXmXmX",
"mXmXmXmXmXmX& mX# N / O.>.3.2.,.,.2.<.<.1.o.F $ mX% mXmXmXmXmXmX",
"mXmXmXmXmXmXmXmXmXmX, C S Z 4 B B 3 Z A D < mXmXmXmXmXmXmXmXmXmX",
"mXmXmXmXmXmXmXmXmXmXmXmXmXmX; n.N.t mXmXmXmXmXmXmXmXmXmXmXmXmXmX",
"mXmXmXmXmXmXmXmXmXmXmXmXmX: 6.Z.Z.c.M mXmXmXmXmXmXmXmXmXmXmXmXmX",
"mXmXmXmXmXmXmXmXmXmXmXmXmX5 B.I.U.~.7.mXmXmXmXmXmXmXmXmXmXmXmXmX",
"mXmXmXmXmXmXmXmXmXmXmXmXmXmX7 ..=.q mXmXmXmXmXmXmXmXmXmXmXmXmXmX",
"mXmXmXmXmXmXmXmXmXmXmXmXmXmX^ '.5Xp.mXmXmXmXmXmXmXmXmXmXmXmXmXmX",
"mXmXmXmXmXmXmXmXmXmX9 5.9.a.P.(.XXE.i.h.l.U mXmXmXmXmXmXmXmXmXmX",
"mXmXmXmXmXmXmXmXmXX K ` %.$._ ) +.@.' #.&.! . mXmXmXmXmXmXmXmXmX",
"mXmXmXmXmXmXmXmXe j #X$Xz z $X$Xz z $X@Xz k *X=XmXmXmXmXmXmXmXmX",
"mXmXmXmXmXmXmX  w n lXlXb b lXlXb b lXlXb b kXzXc mXmXmXmXmXmXmX",
"mXmXmXmXmXmXmXO OX<X;X;X,X,X;X;X,X,X;X;X,X,X>X-Xd mXmXmXmXmXmXmX",
"mXmXmXmXmXmXmXf 1XjXg g hXhXg g hXhXg g hXhXh r o mXmXmXmXmXmXmX"
};
